<?xml version="1.0" ?><svg data-name="Filled Outline" id="Filled_Outline" viewBox="0 0 128 128" xmlns="http://www.w3.org/2000/svg"><title/><rect height="11.886" style="fill:#ffd0ca" width="6.397" x="17.721" y="24.902"/><path d="M24.118,38.289h-6.4a1.5,1.5,0,0,1-1.5-1.5V24.9a1.5,1.5,0,0,1,1.5-1.5h6.4a1.5,1.5,0,0,1,1.5,1.5V36.789A1.5,1.5,0,0,1,24.118,38.289Zm-4.9-3h3.4V26.4h-3.4Z" style="fill:#332c44"/><path d="M80.21,74.218c-5.642-2.14-20.933-1.979-25.537,1.922-1.218,1.032-1.458,3.436.527,3.577l.012,0a14.447,14.447,0,0,0-4.536,2.473C47.79,84.7,48.4,87.344,51,87.528l.027-.01c-.331.168-.663.333-.995.514-6.3,3.424-4.113,8.244-1.911,8.373H88l1.437-19.53Z" style="fill:#f97d8c"/><path d="M124.391,99.523a10.266,10.266,0,0,0-2.857-12.8c-3.467-2.7-8.4-3.885-13.136-6.3-3.162-1.609-12.356-9.882-17.486-14-8.284-6.652-15.147-9.171-16.7-9.657-5.509-1.729-8.607,3.347-5.037,7.682,3.044,3.579,9.481,6.815,12.56,11.858,3.13,5.127-1.989,12.233-9.917,12.866-13.647,1.09-20.384,4.595-23.878,7.374-3.7,2.941-1.7,7.371,1.583,7.178,5.28-.311,13.573-1.934,23.4-2.011,7.932-.063,20.786.27,27.611,2.088a34.863,34.863,0,0,1,7.311,3.354,10.267,10.267,0,0,0,12.934-2.276A29.439,29.439,0,0,0,124.391,99.523Z" style="fill:#ff9ea7"/><rect height="65.867" rx="9" ry="9" style="fill:#3abaae" width="36.66" x="2.589" y="47.334"/><path d="M24.919,66.624h14.33a0,0,0,0,1,0,0V94.372a0,0,0,0,1,0,0H24.919a4,4,0,0,1-4-4V70.624A4,4,0,0,1,24.919,66.624Z" style="fill:#ffe3de"/><path d="M10.751,26.053c5.26-.594,15.732-1.213,24.127,1.825a2.956,2.956,0,0,0,3.954-2.789v-.072A3.017,3.017,0,0,0,37.1,22.269c-9.052-4.245-21.646-3.326-27.057-2.662a3.016,3.016,0,0,0-2.641,3v.445A3.014,3.014,0,0,0,10.751,26.053Z" style="fill:#ffe3de"/><path d="M68.367,39.624a5.759,5.759,0,0,1-11.517,0c0-3.181,2.578-9.4,5.758-9.4S68.367,36.443,68.367,39.624Z" style="fill:#5dc7ec"/><path d="M15.834,36.01H26A4.687,4.687,0,0,1,30.691,40.7v6.638a0,0,0,0,1,0,0H11.147a0,0,0,0,1,0,0V40.7A4.687,4.687,0,0,1,15.834,36.01Z" style="fill:#f7a34f"/><path d="M30.691,48.834H11.147a1.5,1.5,0,0,1-1.5-1.5V40.7a6.194,6.194,0,0,1,6.187-6.187H26A6.193,6.193,0,0,1,32.191,40.7v6.637A1.5,1.5,0,0,1,30.691,48.834Zm-18.044-3H29.191V40.7A3.19,3.19,0,0,0,26,37.51H15.834A3.19,3.19,0,0,0,12.647,40.7Z" style="fill:#332c44"/><path d="M30.25,114.7H11.589a10.512,10.512,0,0,1-10.5-10.5V56.334a10.512,10.512,0,0,1,10.5-10.5H30.25a10.513,10.513,0,0,1,10.5,10.5V104.2A10.513,10.513,0,0,1,30.25,114.7ZM11.589,48.834a7.509,7.509,0,0,0-7.5,7.5V104.2a7.509,7.509,0,0,0,7.5,7.5H30.25a7.509,7.509,0,0,0,7.5-7.5V56.334a7.509,7.509,0,0,0-7.5-7.5Z" style="fill:#332c44"/><path d="M39.25,95.872H24.919a5.506,5.506,0,0,1-5.5-5.5V70.624a5.506,5.506,0,0,1,5.5-5.5H39.25a1.5,1.5,0,0,1,1.5,1.5V94.372A1.5,1.5,0,0,1,39.25,95.872ZM24.919,68.124a2.5,2.5,0,0,0-2.5,2.5V90.372a2.5,2.5,0,0,0,2.5,2.5H37.75V68.124Z" style="fill:#332c44"/><path d="M35.794,29.513a4.638,4.638,0,0,1-1.55-.268c-8.036-2.866-18.062-2.3-23.322-1.7h0A4.516,4.516,0,0,1,5.907,23.05V22.6a4.52,4.52,0,0,1,3.959-4.486c5.23-.642,18.417-1.654,27.9,2.8a4.519,4.519,0,0,1,2.569,4.084,4.445,4.445,0,0,1-1.9,3.676A4.575,4.575,0,0,1,35.794,29.513Zm-16.485-5.45a48.664,48.664,0,0,1,15.942,2.355,1.568,1.568,0,0,0,1.449-.189,1.461,1.461,0,0,0,.632-1.224,1.507,1.507,0,0,0-.846-1.369C27.713,19.511,15.2,20.485,10.231,21.1A1.515,1.515,0,0,0,8.907,22.6v.446a1.506,1.506,0,0,0,.509,1.139,1.473,1.473,0,0,0,1.169.374A78.674,78.674,0,0,1,19.309,24.063Zm-8.556,1.99h0Z" style="fill:#332c44"/><path d="M122.456,85.534a32.99,32.99,0,0,0-8.066-4.12c-1.748-.707-3.557-1.437-5.312-2.33-2.012-1.025-15.6-12.528-17.227-13.835-8.992-7.22-16.373-9.663-17.185-9.918-3.136-.985-6.035-.189-7.562,2.077-1.547,2.3-1.187,5.433.934,8.008a35.147,35.147,0,0,0,5.112,4.512c.729.569,1.464,1.144,2.184,1.732C68.008,70.826,57.592,71.7,53.7,75a4.257,4.257,0,0,0-1.467,2.986,6.284,6.284,0,0,0,.2,1.308,13.214,13.214,0,0,0-2.741,1.771c-1.988,1.725-2.828,3.8-2.246,5.542a3.278,3.278,0,0,0,.511.958c-3.974,2.778-3.667,5.962-3.448,6.945a4.7,4.7,0,0,0,1.17,2.212,5.516,5.516,0,0,0-.885,5.354,4.859,4.859,0,0,0,4.82,3.146c1.912-.112,4.153-.385,6.748-.7a143.189,143.189,0,0,1,16.572-1.307c4.457-.036,19.593.009,27.213,2.039a32.812,32.812,0,0,1,6.953,3.207,11.747,11.747,0,0,0,14.827-2.614,31.231,31.231,0,0,0,3.794-5.624h0A11.749,11.749,0,0,0,122.456,85.534ZM50.749,89.35c7.685-4.174,15.084-4.713,23.826-4.241a1.5,1.5,0,0,0,.162-3c-8.718-.471-16.2.029-23.981,3.858a1.027,1.027,0,0,1-.264-1.253,4.917,4.917,0,0,1,1.167-1.392c4.083-3.542,14.1-4.639,21.693-4.156a1.5,1.5,0,0,0,.189-2.994c-5.957-.378-13,.164-18.3,1.955.175-1.06,1.218-1.439,1.733-1.7,4.648-2.331,14.839-2.608,20.553-1.414a4.844,4.844,0,0,1,3.586,3.808,5.026,5.026,0,0,1-.638,3.511c-1.5,2.934-4.938,5.028-8.767,5.334-10.484.838-18.483,3.2-23.809,7.033a1.662,1.662,0,0,1-.457-.853C47.1,92.342,48.339,90.659,50.749,89.35Zm72.312,9.481a28.215,28.215,0,0,1-3.43,5.08,8.748,8.748,0,0,1-11.042,1.938,35.133,35.133,0,0,0-7.669-3.5c-7.2-1.917-20.5-2.145-26.378-2.145-.636,0-1.186,0-1.63.006A145.638,145.638,0,0,0,56,101.537c-2.545.31-4.743.578-6.561.685A1.822,1.822,0,0,1,47.6,101c-.416-1.086.063-2.313,1.281-3.283C53.71,93.873,61.47,91.5,71.943,90.664c4.845-.387,9.242-3.12,11.2-6.962a8.235,8.235,0,0,0-.122-8.181C81.04,72.277,77.829,69.772,75,67.562a33.2,33.2,0,0,1-4.657-4.072c-1.241-1.507-1.534-3.236-.746-4.406.767-1.137,2.329-1.471,4.176-.891.756.238,7.641,2.519,16.2,9.395,1.6,1.283,15.421,12.986,17.744,14.169,1.871.953,3.741,1.708,5.55,2.438a30.967,30.967,0,0,1,7.346,3.706A8.751,8.751,0,0,1,123.061,98.831Z" style="fill:#332c44"/><path d="M62.608,46.882a7.266,7.266,0,0,1-7.258-7.258c0-3.328,2.742-10.9,7.258-10.9s7.259,7.567,7.259,10.9A7.267,7.267,0,0,1,62.608,46.882Zm0-15.153c-1.838,0-4.258,4.966-4.258,7.9a4.259,4.259,0,0,0,8.517,0C66.867,36.7,64.447,31.729,62.608,31.729Z" style="fill:#332c44"/></svg>